<?xml version="1.0" encoding="UTF-8"?>
<svg xmlns="http://www.w3.org/2000/svg" xmlns:xlink="http://www.w3.org/1999/xlink" viewBox="0 0 32 32" width="32px" height="32px">
<g id="surface23977989">
<path style=" stroke:none;fill-rule:nonzero;fill:rgb(3.921569%,40.000001%,76.078433%);fill-opacity:1;" d="M 25.601562 4.265625 L 6.398438 4.265625 C 5.222656 4.265625 4.265625 5.222656 4.265625 6.398438 L 4.265625 25.601562 C 4.265625 26.777344 5.222656 27.734375 6.398438 27.734375 L 25.601562 27.734375 C 26.777344 27.734375 27.734375 26.777344 27.734375 25.601562 L 27.734375 6.398438 C 27.734375 5.222656 26.777344 4.265625 25.601562 4.265625 Z M 11.683594 23.464844 L 8.539062 23.464844 L 8.539062 13.34375 L 11.683594 13.34375 Z M 10.078125 11.894531 C 9.066406 11.894531 8.246094 11.070312 8.246094 10.058594 C 8.246094 9.046875 9.066406 8.226562 10.078125 8.226562 C 11.089844 8.226562 11.914062 9.046875 11.914062 10.058594 C 11.914062 11.070312 11.089844 11.894531 10.078125 11.894531 Z M 23.472656 23.464844 L 20.328125 23.464844 L 20.328125 18.542969 C 20.328125 17.367188 20.304688 15.859375 18.691406 15.859375 C 17.054688 15.859375 16.800781 17.136719 16.800781 18.457031 L 16.800781 23.464844 L 13.65625 23.464844 L 13.65625 13.34375 L 16.675781 13.34375 L 16.675781 14.726562 L 16.71875 14.726562 C 17.140625 13.929688 18.164062 13.089844 19.695312 13.089844 C 22.882812 13.089844 23.472656 15.1875 23.472656 17.914062 Z M 23.472656 23.464844 "/>
</g>
</svg>
